<mxfile host="Electron" agent="Mozilla/5.0 (Windows NT 10.0; Win64; x64) AppleWebKit/537.36 (KHTML, like Gecko) draw.io/25.0.2 Chrome/128.0.6613.186 Electron/32.2.5 Safari/537.36" version="25.0.2">
  <diagram name="Stránka-1" id="KEM9Mq7jqhjaKVXeSR1l">
    <mxGraphModel dx="3044" dy="1535" grid="1" gridSize="10" guides="1" tooltips="1" connect="1" arrows="1" fold="1" page="1" pageScale="1" pageWidth="980" pageHeight="1390" math="0" shadow="0">
      <root>
        <mxCell id="0" />
        <mxCell id="1" parent="0" />
        <mxCell id="--eOmFIXdNO0Ib19y6-j-1" value="Start" style="ellipse;whiteSpace=wrap;html=1;" vertex="1" parent="1">
          <mxGeometry x="340" y="90" width="100" height="60" as="geometry" />
        </mxCell>
        <mxCell id="--eOmFIXdNO0Ib19y6-j-2" value="" style="endArrow=classic;html=1;rounded=0;exitX=0.5;exitY=1;exitDx=0;exitDy=0;entryX=0.5;entryY=0;entryDx=0;entryDy=0;" edge="1" parent="1" source="--eOmFIXdNO0Ib19y6-j-1" target="--eOmFIXdNO0Ib19y6-j-3">
          <mxGeometry width="50" height="50" relative="1" as="geometry">
            <mxPoint x="410" y="280" as="sourcePoint" />
            <mxPoint x="390" y="210" as="targetPoint" />
          </mxGeometry>
        </mxCell>
        <mxCell id="--eOmFIXdNO0Ib19y6-j-3" value="Získání už. jména, e-mailu a bia z formuláře" style="rounded=0;whiteSpace=wrap;html=1;" vertex="1" parent="1">
          <mxGeometry x="330" y="190" width="120" height="60" as="geometry" />
        </mxCell>
        <mxCell id="--eOmFIXdNO0Ib19y6-j-5" value="" style="endArrow=classic;html=1;rounded=0;exitX=0.5;exitY=1;exitDx=0;exitDy=0;entryX=0.5;entryY=0;entryDx=0;entryDy=0;" edge="1" parent="1">
          <mxGeometry width="50" height="50" relative="1" as="geometry">
            <mxPoint x="389.83" y="250" as="sourcePoint" />
            <mxPoint x="389.83" y="290" as="targetPoint" />
          </mxGeometry>
        </mxCell>
        <mxCell id="--eOmFIXdNO0Ib19y6-j-6" value="Vygenerování soli pro zahashování hesla" style="rounded=0;whiteSpace=wrap;html=1;" vertex="1" parent="1">
          <mxGeometry x="330" y="290" width="120" height="60" as="geometry" />
        </mxCell>
        <mxCell id="--eOmFIXdNO0Ib19y6-j-7" value="" style="endArrow=classic;html=1;rounded=0;exitX=0.5;exitY=1;exitDx=0;exitDy=0;" edge="1" parent="1" source="--eOmFIXdNO0Ib19y6-j-6">
          <mxGeometry width="50" height="50" relative="1" as="geometry">
            <mxPoint x="400" y="360" as="sourcePoint" />
            <mxPoint x="390" y="390" as="targetPoint" />
          </mxGeometry>
        </mxCell>
        <mxCell id="--eOmFIXdNO0Ib19y6-j-8" value="Zahashování hesla" style="rounded=0;whiteSpace=wrap;html=1;" vertex="1" parent="1">
          <mxGeometry x="330" y="390" width="120" height="60" as="geometry" />
        </mxCell>
        <mxCell id="--eOmFIXdNO0Ib19y6-j-9" value="" style="endArrow=classic;html=1;rounded=0;exitX=0.5;exitY=1;exitDx=0;exitDy=0;" edge="1" parent="1" source="--eOmFIXdNO0Ib19y6-j-8">
          <mxGeometry width="50" height="50" relative="1" as="geometry">
            <mxPoint x="400" y="430" as="sourcePoint" />
            <mxPoint x="390" y="500" as="targetPoint" />
          </mxGeometry>
        </mxCell>
        <mxCell id="--eOmFIXdNO0Ib19y6-j-10" value="Je už. jméno už v DB?" style="rhombus;whiteSpace=wrap;html=1;" vertex="1" parent="1">
          <mxGeometry x="330" y="500" width="120" height="130" as="geometry" />
        </mxCell>
        <mxCell id="--eOmFIXdNO0Ib19y6-j-12" value="" style="endArrow=classic;html=1;rounded=0;exitX=0.5;exitY=1;exitDx=0;exitDy=0;" edge="1" parent="1">
          <mxGeometry width="50" height="50" relative="1" as="geometry">
            <mxPoint x="389.83" y="630" as="sourcePoint" />
            <mxPoint x="389.83" y="680" as="targetPoint" />
          </mxGeometry>
        </mxCell>
        <mxCell id="--eOmFIXdNO0Ib19y6-j-14" value="0" style="text;html=1;align=center;verticalAlign=middle;whiteSpace=wrap;rounded=0;" vertex="1" parent="1">
          <mxGeometry x="340" y="630" width="60" height="30" as="geometry" />
        </mxCell>
        <mxCell id="--eOmFIXdNO0Ib19y6-j-16" value="Je E-Mail už v DB?" style="rhombus;whiteSpace=wrap;html=1;" vertex="1" parent="1">
          <mxGeometry x="330" y="680" width="120" height="130" as="geometry" />
        </mxCell>
        <mxCell id="--eOmFIXdNO0Ib19y6-j-18" value="" style="endArrow=classic;html=1;rounded=0;exitX=0.5;exitY=1;exitDx=0;exitDy=0;" edge="1" parent="1">
          <mxGeometry width="50" height="50" relative="1" as="geometry">
            <mxPoint x="389.83" y="810" as="sourcePoint" />
            <mxPoint x="389.83" y="860" as="targetPoint" />
          </mxGeometry>
        </mxCell>
        <mxCell id="--eOmFIXdNO0Ib19y6-j-19" value="Je už. jméno delší než 15 znaků?" style="rhombus;whiteSpace=wrap;html=1;" vertex="1" parent="1">
          <mxGeometry x="330" y="860" width="120" height="130" as="geometry" />
        </mxCell>
        <mxCell id="--eOmFIXdNO0Ib19y6-j-20" value="" style="endArrow=classic;html=1;rounded=0;exitX=0.5;exitY=1;exitDx=0;exitDy=0;" edge="1" parent="1">
          <mxGeometry width="50" height="50" relative="1" as="geometry">
            <mxPoint x="389.83" y="990" as="sourcePoint" />
            <mxPoint x="389.83" y="1040" as="targetPoint" />
          </mxGeometry>
        </mxCell>
        <mxCell id="--eOmFIXdNO0Ib19y6-j-21" value="Je E-Mail delší než 25 znaků?" style="rhombus;whiteSpace=wrap;html=1;" vertex="1" parent="1">
          <mxGeometry x="330" y="1040" width="120" height="130" as="geometry" />
        </mxCell>
        <mxCell id="--eOmFIXdNO0Ib19y6-j-22" value="" style="endArrow=classic;html=1;rounded=0;exitX=0.5;exitY=1;exitDx=0;exitDy=0;" edge="1" parent="1">
          <mxGeometry width="50" height="50" relative="1" as="geometry">
            <mxPoint x="389.83" y="1170" as="sourcePoint" />
            <mxPoint x="389.83" y="1220" as="targetPoint" />
          </mxGeometry>
        </mxCell>
        <mxCell id="--eOmFIXdNO0Ib19y6-j-23" value="Vložení údajů o uživateli do DB" style="rounded=0;whiteSpace=wrap;html=1;" vertex="1" parent="1">
          <mxGeometry x="330" y="1220" width="120" height="60" as="geometry" />
        </mxCell>
        <mxCell id="--eOmFIXdNO0Ib19y6-j-24" value="" style="endArrow=classic;html=1;rounded=0;exitX=0.5;exitY=1;exitDx=0;exitDy=0;" edge="1" parent="1">
          <mxGeometry width="50" height="50" relative="1" as="geometry">
            <mxPoint x="389.83" y="1280" as="sourcePoint" />
            <mxPoint x="389.83" y="1330" as="targetPoint" />
          </mxGeometry>
        </mxCell>
        <mxCell id="--eOmFIXdNO0Ib19y6-j-25" value="Získání ID z DB a jeho vložení do session" style="rounded=0;whiteSpace=wrap;html=1;" vertex="1" parent="1">
          <mxGeometry x="330" y="1330" width="120" height="60" as="geometry" />
        </mxCell>
        <mxCell id="--eOmFIXdNO0Ib19y6-j-26" value="" style="endArrow=classic;html=1;rounded=0;exitX=0.5;exitY=1;exitDx=0;exitDy=0;" edge="1" parent="1">
          <mxGeometry width="50" height="50" relative="1" as="geometry">
            <mxPoint x="389.83" y="1390" as="sourcePoint" />
            <mxPoint x="389.83" y="1440" as="targetPoint" />
          </mxGeometry>
        </mxCell>
        <mxCell id="--eOmFIXdNO0Ib19y6-j-27" value="Získání největšího ID z kategorie pro zjištění počtu kategorií" style="rounded=0;whiteSpace=wrap;html=1;" vertex="1" parent="1">
          <mxGeometry x="330" y="1530" width="120" height="60" as="geometry" />
        </mxCell>
        <mxCell id="--eOmFIXdNO0Ib19y6-j-28" value="" style="endArrow=classic;html=1;rounded=0;exitX=0.5;exitY=1;exitDx=0;exitDy=0;" edge="1" parent="1" source="--eOmFIXdNO0Ib19y6-j-27">
          <mxGeometry width="50" height="50" relative="1" as="geometry">
            <mxPoint x="400" y="1590" as="sourcePoint" />
            <mxPoint x="390" y="1640" as="targetPoint" />
          </mxGeometry>
        </mxCell>
        <mxCell id="--eOmFIXdNO0Ib19y6-j-29" value="for i in range(0, počet kategorií)" style="shape=hexagon;perimeter=hexagonPerimeter2;whiteSpace=wrap;html=1;fixedSize=1;" vertex="1" parent="1">
          <mxGeometry x="295" y="1640" width="190" height="50" as="geometry" />
        </mxCell>
        <mxCell id="--eOmFIXdNO0Ib19y6-j-30" value="" style="endArrow=classic;html=1;rounded=0;exitX=0;exitY=0.5;exitDx=0;exitDy=0;" edge="1" parent="1" source="--eOmFIXdNO0Ib19y6-j-29">
          <mxGeometry width="50" height="50" relative="1" as="geometry">
            <mxPoint x="400" y="1660" as="sourcePoint" />
            <mxPoint x="250" y="1665" as="targetPoint" />
          </mxGeometry>
        </mxCell>
        <mxCell id="--eOmFIXdNO0Ib19y6-j-31" value="Vložení prázdných hodnot do language_popularity pro danou kategorii" style="rounded=0;whiteSpace=wrap;html=1;" vertex="1" parent="1">
          <mxGeometry x="130" y="1635" width="120" height="60" as="geometry" />
        </mxCell>
        <mxCell id="--eOmFIXdNO0Ib19y6-j-32" value="" style="endArrow=classic;html=1;rounded=0;exitX=0.5;exitY=0;exitDx=0;exitDy=0;entryX=0.375;entryY=0;entryDx=0;entryDy=0;" edge="1" parent="1" source="--eOmFIXdNO0Ib19y6-j-31" target="--eOmFIXdNO0Ib19y6-j-29">
          <mxGeometry width="50" height="50" relative="1" as="geometry">
            <mxPoint x="340" y="1690" as="sourcePoint" />
            <mxPoint x="390" y="1640" as="targetPoint" />
            <Array as="points">
              <mxPoint x="190" y="1610" />
              <mxPoint x="366" y="1610" />
            </Array>
          </mxGeometry>
        </mxCell>
        <mxCell id="--eOmFIXdNO0Ib19y6-j-33" value="" style="endArrow=classic;html=1;rounded=0;exitX=1;exitY=0.5;exitDx=0;exitDy=0;" edge="1" parent="1" source="--eOmFIXdNO0Ib19y6-j-29">
          <mxGeometry width="50" height="50" relative="1" as="geometry">
            <mxPoint x="440" y="1740" as="sourcePoint" />
            <mxPoint x="530" y="1665" as="targetPoint" />
          </mxGeometry>
        </mxCell>
        <mxCell id="--eOmFIXdNO0Ib19y6-j-34" value="Vložení prázdných hodnot do statistics a task_statistics" style="rounded=0;whiteSpace=wrap;html=1;" vertex="1" parent="1">
          <mxGeometry x="530" y="1635" width="120" height="60" as="geometry" />
        </mxCell>
        <mxCell id="--eOmFIXdNO0Ib19y6-j-35" value="Vložení už. jména, bia a emailu do session" style="rounded=0;whiteSpace=wrap;html=1;" vertex="1" parent="1">
          <mxGeometry x="330" y="1440" width="120" height="60" as="geometry" />
        </mxCell>
        <mxCell id="--eOmFIXdNO0Ib19y6-j-36" value="" style="endArrow=classic;html=1;rounded=0;exitX=0.5;exitY=1;exitDx=0;exitDy=0;entryX=0.5;entryY=0;entryDx=0;entryDy=0;" edge="1" parent="1" source="--eOmFIXdNO0Ib19y6-j-35" target="--eOmFIXdNO0Ib19y6-j-27">
          <mxGeometry width="50" height="50" relative="1" as="geometry">
            <mxPoint x="590" y="1460" as="sourcePoint" />
            <mxPoint x="640" y="1410" as="targetPoint" />
          </mxGeometry>
        </mxCell>
        <mxCell id="--eOmFIXdNO0Ib19y6-j-37" value="" style="endArrow=classic;html=1;rounded=0;exitX=1;exitY=0.5;exitDx=0;exitDy=0;" edge="1" parent="1" source="--eOmFIXdNO0Ib19y6-j-34">
          <mxGeometry width="50" height="50" relative="1" as="geometry">
            <mxPoint x="630" y="1590" as="sourcePoint" />
            <mxPoint x="710" y="1665" as="targetPoint" />
          </mxGeometry>
        </mxCell>
        <mxCell id="--eOmFIXdNO0Ib19y6-j-38" value="End" style="ellipse;whiteSpace=wrap;html=1;" vertex="1" parent="1">
          <mxGeometry x="710" y="1635" width="100" height="60" as="geometry" />
        </mxCell>
        <mxCell id="--eOmFIXdNO0Ib19y6-j-39" value="" style="endArrow=classic;html=1;rounded=0;exitX=1;exitY=0.5;exitDx=0;exitDy=0;" edge="1" parent="1" source="--eOmFIXdNO0Ib19y6-j-10">
          <mxGeometry width="50" height="50" relative="1" as="geometry">
            <mxPoint x="610" y="490" as="sourcePoint" />
            <mxPoint x="490" y="565" as="targetPoint" />
          </mxGeometry>
        </mxCell>
        <mxCell id="--eOmFIXdNO0Ib19y6-j-40" value="Vypsání chybové hlášky" style="rounded=0;whiteSpace=wrap;html=1;" vertex="1" parent="1">
          <mxGeometry x="490" y="535" width="120" height="60" as="geometry" />
        </mxCell>
        <mxCell id="--eOmFIXdNO0Ib19y6-j-41" value="" style="endArrow=classic;html=1;rounded=0;exitX=1;exitY=0.5;exitDx=0;exitDy=0;" edge="1" parent="1">
          <mxGeometry width="50" height="50" relative="1" as="geometry">
            <mxPoint x="450" y="744.6800000000001" as="sourcePoint" />
            <mxPoint x="490" y="744.6800000000001" as="targetPoint" />
          </mxGeometry>
        </mxCell>
        <mxCell id="--eOmFIXdNO0Ib19y6-j-42" value="" style="endArrow=classic;html=1;rounded=0;exitX=1;exitY=0.5;exitDx=0;exitDy=0;" edge="1" parent="1">
          <mxGeometry width="50" height="50" relative="1" as="geometry">
            <mxPoint x="450" y="924.6800000000001" as="sourcePoint" />
            <mxPoint x="490" y="924.6800000000001" as="targetPoint" />
          </mxGeometry>
        </mxCell>
        <mxCell id="--eOmFIXdNO0Ib19y6-j-43" value="" style="endArrow=classic;html=1;rounded=0;exitX=1;exitY=0.5;exitDx=0;exitDy=0;" edge="1" parent="1">
          <mxGeometry width="50" height="50" relative="1" as="geometry">
            <mxPoint x="450" y="1104.68" as="sourcePoint" />
            <mxPoint x="490" y="1104.68" as="targetPoint" />
          </mxGeometry>
        </mxCell>
        <mxCell id="--eOmFIXdNO0Ib19y6-j-44" value="Vypsání chybové hlášky" style="rounded=0;whiteSpace=wrap;html=1;" vertex="1" parent="1">
          <mxGeometry x="490" y="715" width="120" height="60" as="geometry" />
        </mxCell>
        <mxCell id="--eOmFIXdNO0Ib19y6-j-45" value="Vypsání chybové hlášky" style="rounded=0;whiteSpace=wrap;html=1;" vertex="1" parent="1">
          <mxGeometry x="490" y="895" width="120" height="60" as="geometry" />
        </mxCell>
        <mxCell id="--eOmFIXdNO0Ib19y6-j-46" value="Vypsání chybové hlášky" style="rounded=0;whiteSpace=wrap;html=1;" vertex="1" parent="1">
          <mxGeometry x="490" y="1075" width="120" height="60" as="geometry" />
        </mxCell>
        <mxCell id="--eOmFIXdNO0Ib19y6-j-48" value="0" style="text;html=1;align=center;verticalAlign=middle;whiteSpace=wrap;rounded=0;" vertex="1" parent="1">
          <mxGeometry x="340" y="810" width="60" height="30" as="geometry" />
        </mxCell>
        <mxCell id="--eOmFIXdNO0Ib19y6-j-49" value="0" style="text;html=1;align=center;verticalAlign=middle;whiteSpace=wrap;rounded=0;" vertex="1" parent="1">
          <mxGeometry x="340" y="980" width="60" height="30" as="geometry" />
        </mxCell>
        <mxCell id="--eOmFIXdNO0Ib19y6-j-50" value="0" style="text;html=1;align=center;verticalAlign=middle;whiteSpace=wrap;rounded=0;" vertex="1" parent="1">
          <mxGeometry x="340" y="1170" width="60" height="30" as="geometry" />
        </mxCell>
        <mxCell id="--eOmFIXdNO0Ib19y6-j-51" value="1" style="text;html=1;align=center;verticalAlign=middle;whiteSpace=wrap;rounded=0;" vertex="1" parent="1">
          <mxGeometry x="440" y="530" width="60" height="30" as="geometry" />
        </mxCell>
        <mxCell id="--eOmFIXdNO0Ib19y6-j-52" value="1" style="text;html=1;align=center;verticalAlign=middle;whiteSpace=wrap;rounded=0;" vertex="1" parent="1">
          <mxGeometry x="440" y="715" width="60" height="30" as="geometry" />
        </mxCell>
        <mxCell id="--eOmFIXdNO0Ib19y6-j-53" value="1" style="text;html=1;align=center;verticalAlign=middle;whiteSpace=wrap;rounded=0;" vertex="1" parent="1">
          <mxGeometry x="440" y="895" width="60" height="30" as="geometry" />
        </mxCell>
        <mxCell id="--eOmFIXdNO0Ib19y6-j-54" value="1" style="text;html=1;align=center;verticalAlign=middle;whiteSpace=wrap;rounded=0;" vertex="1" parent="1">
          <mxGeometry x="440" y="1070" width="60" height="30" as="geometry" />
        </mxCell>
        <mxCell id="--eOmFIXdNO0Ib19y6-j-55" value="" style="ellipse;whiteSpace=wrap;html=1;aspect=fixed;" vertex="1" parent="1">
          <mxGeometry x="670" y="1085" width="40" height="40" as="geometry" />
        </mxCell>
        <mxCell id="--eOmFIXdNO0Ib19y6-j-56" value="" style="endArrow=classic;html=1;rounded=0;exitX=1;exitY=0.5;exitDx=0;exitDy=0;entryX=0.5;entryY=0;entryDx=0;entryDy=0;" edge="1" parent="1" source="--eOmFIXdNO0Ib19y6-j-40" target="--eOmFIXdNO0Ib19y6-j-58">
          <mxGeometry width="50" height="50" relative="1" as="geometry">
            <mxPoint x="740" y="970" as="sourcePoint" />
            <mxPoint x="770" y="650" as="targetPoint" />
            <Array as="points">
              <mxPoint x="690" y="565" />
            </Array>
          </mxGeometry>
        </mxCell>
        <mxCell id="--eOmFIXdNO0Ib19y6-j-57" value="" style="ellipse;whiteSpace=wrap;html=1;aspect=fixed;" vertex="1" parent="1">
          <mxGeometry x="670" y="905" width="40" height="40" as="geometry" />
        </mxCell>
        <mxCell id="--eOmFIXdNO0Ib19y6-j-58" value="" style="ellipse;whiteSpace=wrap;html=1;aspect=fixed;" vertex="1" parent="1">
          <mxGeometry x="670" y="725" width="40" height="40" as="geometry" />
        </mxCell>
        <mxCell id="--eOmFIXdNO0Ib19y6-j-59" value="" style="endArrow=classic;html=1;rounded=0;exitX=1;exitY=0.5;exitDx=0;exitDy=0;entryX=0;entryY=0.5;entryDx=0;entryDy=0;" edge="1" parent="1" source="--eOmFIXdNO0Ib19y6-j-44" target="--eOmFIXdNO0Ib19y6-j-58">
          <mxGeometry width="50" height="50" relative="1" as="geometry">
            <mxPoint x="710" y="730" as="sourcePoint" />
            <mxPoint x="760" y="680" as="targetPoint" />
          </mxGeometry>
        </mxCell>
        <mxCell id="--eOmFIXdNO0Ib19y6-j-60" value="" style="endArrow=classic;html=1;rounded=0;exitX=0.5;exitY=1;exitDx=0;exitDy=0;entryX=0.5;entryY=0;entryDx=0;entryDy=0;" edge="1" parent="1" source="--eOmFIXdNO0Ib19y6-j-58" target="--eOmFIXdNO0Ib19y6-j-57">
          <mxGeometry width="50" height="50" relative="1" as="geometry">
            <mxPoint x="720" y="870" as="sourcePoint" />
            <mxPoint x="770" y="820" as="targetPoint" />
          </mxGeometry>
        </mxCell>
        <mxCell id="--eOmFIXdNO0Ib19y6-j-61" value="" style="endArrow=classic;html=1;rounded=0;exitX=1;exitY=0.5;exitDx=0;exitDy=0;entryX=0;entryY=0.5;entryDx=0;entryDy=0;" edge="1" parent="1" source="--eOmFIXdNO0Ib19y6-j-45" target="--eOmFIXdNO0Ib19y6-j-57">
          <mxGeometry width="50" height="50" relative="1" as="geometry">
            <mxPoint x="720" y="930" as="sourcePoint" />
            <mxPoint x="770" y="880" as="targetPoint" />
          </mxGeometry>
        </mxCell>
        <mxCell id="--eOmFIXdNO0Ib19y6-j-62" value="" style="endArrow=classic;html=1;rounded=0;exitX=0.5;exitY=1;exitDx=0;exitDy=0;entryX=0.5;entryY=0;entryDx=0;entryDy=0;" edge="1" parent="1" source="--eOmFIXdNO0Ib19y6-j-57" target="--eOmFIXdNO0Ib19y6-j-55">
          <mxGeometry width="50" height="50" relative="1" as="geometry">
            <mxPoint x="720" y="1030" as="sourcePoint" />
            <mxPoint x="770" y="980" as="targetPoint" />
          </mxGeometry>
        </mxCell>
        <mxCell id="--eOmFIXdNO0Ib19y6-j-63" value="" style="endArrow=classic;html=1;rounded=0;exitX=1;exitY=0.5;exitDx=0;exitDy=0;entryX=0;entryY=0.5;entryDx=0;entryDy=0;" edge="1" parent="1" source="--eOmFIXdNO0Ib19y6-j-46" target="--eOmFIXdNO0Ib19y6-j-55">
          <mxGeometry width="50" height="50" relative="1" as="geometry">
            <mxPoint x="720" y="1080" as="sourcePoint" />
            <mxPoint x="770" y="1030" as="targetPoint" />
          </mxGeometry>
        </mxCell>
        <mxCell id="--eOmFIXdNO0Ib19y6-j-65" value="" style="endArrow=classic;html=1;rounded=0;exitX=0.5;exitY=1;exitDx=0;exitDy=0;entryX=0.5;entryY=0;entryDx=0;entryDy=0;" edge="1" parent="1" source="--eOmFIXdNO0Ib19y6-j-55" target="--eOmFIXdNO0Ib19y6-j-38">
          <mxGeometry width="50" height="50" relative="1" as="geometry">
            <mxPoint x="720" y="1350" as="sourcePoint" />
            <mxPoint x="770" y="1300" as="targetPoint" />
            <Array as="points">
              <mxPoint x="760" y="1180" />
            </Array>
          </mxGeometry>
        </mxCell>
      </root>
    </mxGraphModel>
  </diagram>
</mxfile>
